<svg xmlns="http://www.w3.org/2000/svg" viewBox="0 0 167 160"><defs><style>.cls-1{fill:#fff;}</style></defs><g id="Layer_2" data-name="Layer 2"><g id="BG"><path class="cls-1" d="M147,10a10,10,0,0,1,0,20H20a10,10,0,0,1,0-20H147m0-10H20a20,20,0,0,0,0,40H147a20,20,0,0,0,0-40Z"/><path class="cls-1" d="M147,70a10,10,0,0,1,0,20H20a10,10,0,0,1,0-20H147m0-10H20a20,20,0,0,0,0,40H147a20,20,0,0,0,0-40Z"/><path class="cls-1" d="M147,130a10,10,0,0,1,0,20H20a10,10,0,0,1,0-20H147m0-10H20A20,20,0,0,0,0,140H0a20,20,0,0,0,20,20H147a20,20,0,0,0,20-20h0a20,20,0,0,0-20-20Z"/></g></g></svg>