<svg xmlns="http://www.w3.org/2000/svg" viewBox="0 0 44.49 44.49"><defs><style>.cls-1{fill:#2bb792;}</style></defs><g id="Layer_2" data-name="Layer 2"><g id="Layer_1-2" data-name="Layer 1"><polygon class="cls-1" points="11.4 14.11 11.4 16.82 22.24 23.6 33.1 16.82 33.1 14.11 22.24 20.89 11.4 14.11"/><path class="cls-1" d="M22.25,0A22.25,22.25,0,1,0,44.49,22.25,22.25,22.25,0,0,0,22.25,0M35.81,30.38A2.72,2.72,0,0,1,33.1,33.1H11.4a2.72,2.72,0,0,1-2.72-2.72l0-16.27a2.7,2.7,0,0,1,2.7-2.71H33.1a2.71,2.71,0,0,1,2.71,2.71Z"/></g></g></svg>