<svg xmlns="http://www.w3.org/2000/svg" viewBox="0 0 44.49 44.49"><defs><style>.cls-1{fill:#2bb792;}</style></defs><g id="Layer_2" data-name="Layer 2"><g id="Layer_1-2" data-name="Layer 1"><path class="cls-1" d="M22.24,0A22.25,22.25,0,1,0,44.49,22.24,22.24,22.24,0,0,0,22.24,0M16.51,32.43H11.86V17.5h4.65Zm-2.32-17a2.69,2.69,0,1,1,2.69-2.69,2.69,2.69,0,0,1-2.69,2.69m19.71,17H29.26V25.17c0-1.73,0-4-2.42-4S24.06,23.1,24.06,25v7.39H19.42V17.5h4.45v2h.07a4.87,4.87,0,0,1,4.39-2.42c4.7,0,5.57,3.1,5.57,7.12Z"/></g></g></svg>